<svg style="height: 512px; width: 512px;" xmlns="http://www.w3.org/2000/svg" viewBox="0 0 512 512"><path d="M0 0h512v512H0z" fill="#000" fill-opacity="1"></path><g class="" style="" transform="translate(0,0)"><path d="M448 25c-8.4 0-15 6.61-15 15s6.6 15 15 15 15-6.61 15-15-6.6-15-15-15zm7 50.53L373.1 96l81.9 20.5V75.53zM439 131v292h18V135.5l-18-4.5zm-158 54v46h46v-46h-46zm-64 64v46h46v-46h-46zm64 0v46h46v-46h-46zm-128 64v46h46v-46h-46zm64 0v46h46v-46h-46zm64 0v46h46v-46h-46zM89 377v46h46v-46H89zm64 0v46h46v-46h-46zm64 0v46h46v-46h-46zm64 0v46h46v-46h-46zM25 441v46h46v-46H25zm64 0v46h46v-46H89zm64 0v46h46v-46h-46zm64 0v46h46v-46h-46zm64 0v46h46v-46h-46zm144 0v46h46v-46h-46z" fill="#fff" fill-opacity="1"></path></g></svg>